<svg version="1.2" xmlns="http://www.w3.org/2000/svg" viewBox="0 0 32 32" width="32" height="32"><defs><clipPath clipPathUnits="userSpaceOnUse" id="cp1"><path d="m-67-1829h1440v4350h-1440z"/></clipPath></defs><style></style><g clip-path="url(#cp1)"><path fill-rule="evenodd" d="m32 25.9c0 1.3-0.9 3.1-5 4.6-3 0.9-6.9 1.5-11 1.5-4.1 0-8-0.6-11-1.5-4.1-1.5-5-3.3-5-4.6 0-1.6 1.5-2.8 2.7-3.5 0.5-0.2 1.1 0 1.3 0.4 0.3 0.5 0.1 1-0.4 1.3-1.1 0.6-1.7 1.3-1.7 1.8 0 0.7 1 1.8 3.8 2.8 2.7 0.9 6.4 1.4 10.3 1.4 3.9 0 7.6-0.5 10.3-1.4 2.8-1 3.8-2.1 3.8-2.8 0-0.5-0.6-1.2-1.7-1.8-0.5-0.3-0.7-0.8-0.4-1.3 0.2-0.4 0.8-0.6 1.3-0.4 1.2 0.7 2.7 1.9 2.7 3.5zm-26.6-1.4q0-1.8 3.5-2.8 0.8-0.3 1.7-0.4 0.5 0.8 1 1.7-1 0.2-1.8 0.4c-1.7 0.4-2.4 0.9-2.5 1.1 0.1 0.2 0.8 0.7 2.5 1.1 1.6 0.4 3.7 0.7 5.9 0.7q0.1 0 0.3 0 0.2 0 0.3 0c2.2 0 4.3-0.3 5.9-0.7 1.7-0.4 2.4-0.9 2.5-1.1-0.1-0.2-0.8-0.7-2.5-1.1q-0.8-0.2-1.8-0.4 0.5-0.9 1-1.7 0.9 0.1 1.7 0.4 3.5 1 3.5 2.8 0 1.8-3.5 2.8c-1.9 0.6-4.4 0.9-7.1 0.9-2.7 0-5.2-0.3-7.1-0.9q-3.5-1-3.5-2.8zm8.6-1.2c-3.1-5-6.7-11.6-6.7-14.6 0-4.8 3.9-8.7 8.7-8.7 4.8 0 8.7 3.9 8.7 8.7 0 3-3.6 9.6-6.7 14.6-0.4 0.7-1.2 1.1-2 1.1-0.8 0-1.6-0.4-2-1.1zm2-11.7c1.9 0 3.5-1.6 3.5-3.5 0-1.9-1.6-3.5-3.5-3.5-1.9 0-3.5 1.6-3.5 3.5 0 1.9 1.6 3.5 3.5 3.5z"/></g></svg>