<svg version="1.2" xmlns="http://www.w3.org/2000/svg" viewBox="0 0 30 31" width="30" height="31"><defs><clipPath clipPathUnits="userSpaceOnUse" id="cp1"><path d="m-68-1926h1440v4350h-1440z"/></clipPath></defs><style></style><g clip-path="url(#cp1)"><path fill-rule="evenodd" d="m10 3.5c0-1.7 1.3-3 3-3h4c1.7 0 3 1.3 3 3v2h6c1.1 0 2.1 0.4 2.8 1.2 0.8 0.7 1.2 1.7 1.2 2.8v15.5c0 1.1-0.4 2.1-1.2 2.8-0.7 0.8-1.7 1.2-2.8 1.2h-1v0.5c0 0.6-0.5 1-1 1-0.6 0-1-0.4-1-1v-0.5h-16v0.5c0 0.6-0.5 1-1 1-0.6 0-1-0.4-1-1v-0.5h-1c-1.1 0-2.1-0.4-2.8-1.2-0.8-0.7-1.2-1.7-1.2-2.8v-15.5c0-1.1 0.4-2.1 1.2-2.8 0.7-0.8 1.7-1.2 2.8-1.2h6zm-3 5v17.5c0 0.6 0.4 1 1 1 0.5 0 1-0.4 1-1v-17.5c0-0.6-0.5-1-1-1-0.6 0-1 0.4-1 1zm14 0v17.5c0 0.6 0.4 1 1 1 0.5 0 1-0.4 1-1v-17.5c0-0.6-0.5-1-1-1-0.6 0-1 0.4-1 1zm-3-3v-2c0-0.6-0.4-1-1-1h-4c-0.6 0-1 0.4-1 1v2z"/></g></svg>