<svg version="1.2" xmlns="http://www.w3.org/2000/svg" viewBox="0 0 29 29" width="29" height="29"><defs><clipPath clipPathUnits="userSpaceOnUse" id="cp1"><path d="m-67-2022h1440v4350h-1440z"/></clipPath></defs><style></style><g clip-path="url(#cp1)"><path fill-rule="evenodd" d="m27.5 4q0.5 1.2 0.5 2.5c0 1.4-0.5 2.8-1.3 3.9-0.1 0.2-4 5.4-4 5.4q-0.2 0.3-0.5 0.5-0.4 0.2-0.7 0.2-0.4 0-0.7-0.2-0.4-0.2-0.6-0.5c-0.9-1.2-3.8-5.3-3.9-5.4-0.9-1.2-1.3-2.6-1.3-4 0-1.7 0.7-3.3 1.9-4.4 1.2-1.2 2.7-1.9 4.4-2q1.3 0 2.6 0.4 1.2 0.5 2.1 1.4 1 1 1.5 2.2zm-4.2 4.4c0.4-0.5 0.7-1.1 0.7-1.8 0-0.5-0.1-1-0.4-1.4-0.3-0.4-0.7-0.7-1.1-0.9-0.5-0.2-1-0.3-1.5-0.2-0.5 0.1-0.9 0.4-1.3 0.7-0.3 0.4-0.6 0.8-0.7 1.3 0 0.5 0 1 0.2 1.5 0.2 0.4 0.5 0.8 0.9 1.1 0.4 0.2 0.9 0.4 1.4 0.4 0.7 0 1.3-0.3 1.8-0.7zm-18.3 17.2c0 0.5-0.1 1-0.4 1.4-0.3 0.4-0.7 0.7-1.1 0.9-0.5 0.2-1 0.2-1.5 0.1-0.5-0.1-0.9-0.3-1.3-0.6-0.3-0.4-0.6-0.8-0.7-1.3 0-0.5 0-1 0.2-1.5 0.2-0.4 0.5-0.8 0.9-1.1 0.4-0.3 0.9-0.4 1.4-0.4 0.7 0 1.3 0.3 1.8 0.7 0.4 0.5 0.7 1.1 0.7 1.8zm11-2.5c0 0.8-0.3 1.6-0.9 2.1-0.5 0.6-1.3 0.9-2.1 0.9h-6.1c0.1-0.7 0.1-1.4-0.2-2h6.3q0.4 0 0.7-0.3 0.3-0.3 0.3-0.7 0-0.4-0.3-0.7-0.3-0.3-0.7-0.3h-4c-0.8 0-1.6-0.3-2.1-0.9-0.6-0.5-0.9-1.3-0.9-2.1v-1c0-0.8 0.3-1.6 0.9-2.1 0.5-0.6 1.3-0.9 2.1-0.9h8.2c0.7 0.9 1.1 1.5 1.5 2h-9.7q-0.4 0-0.7 0.3-0.3 0.3-0.3 0.7v1q0 0.4 0.3 0.7 0.3 0.3 0.7 0.3h4c0.8 0 1.6 0.3 2.1 0.9 0.6 0.5 0.9 1.3 0.9 2.1z"/></g></svg>